HIERARCHY
ROOT hip
{
  OFFSET 0 0 0
  CHANNELS 6 Xposition Yposition Zposition Zrotation Yrotation Xrotation
  JOINT abdomen
  {
    OFFSET 0 20.6881 -0.73152
    CHANNELS 3 Zrotation Xrotation Yrotation
    JOINT chest
    {
      OFFSET 0 11.7043 -0.48768
      CHANNELS 3 Zrotation Xrotation Yrotation
      JOINT neck
      {
        OFFSET 0 22.1894 -2.19456
        CHANNELS 3 Zrotation Xrotation Yrotation
        JOINT head
        {
          OFFSET -0.24384 7.07133 1.2192
          CHANNELS 3 Zrotation Xrotation Yrotation
          JOINT leftEye
          {
            OFFSET 4.14528 8.04674 8.04672
            CHANNELS 3 Zrotation Xrotation Yrotation
            End Site
            {
              OFFSET 1 0 0
            }
          }
          JOINT rightEye
          {
            OFFSET -3.6576 8.04674 8.04672
            CHANNELS 3 Zrotation Xrotation Yrotation
            End Site
            {
              OFFSET 1 0 0
            }
          }
        }
      }
      JOINT rCollar
      {
        OFFSET -2.68224 19.2634 -4.8768
        CHANNELS 3 Zrotation Xrotation Yrotation
        JOINT rShldr
        {
          OFFSET -8.77824 -1.95073 1.46304
          CHANNELS 3 Zrotation Xrotation Yrotation
          JOINT rForeArm
          {
            OFFSET -28.1742 -1.7115 0.48768
            CHANNELS 3 Zrotation Xrotation Yrotation
            JOINT rHand
            {
              OFFSET -22.5879 0.773209 7.07136
              CHANNELS 3 Zrotation Xrotation Yrotation
              JOINT rThumb1
              {
                OFFSET -1.2192 -0.487915 3.41376
                CHANNELS 3 Zrotation Xrotation Yrotation
                JOINT rThumb2
                {
                  OFFSET -3.37035 -0.52449 3.41376
                  CHANNELS 3 Zrotation Xrotation Yrotation
                  End Site
                  {
                    OFFSET -1.78271 -1.18214 1.43049
                  }
                }
              }
              JOINT rIndex1
              {
                OFFSET -7.75947 0.938293 5.60832
                CHANNELS 3 Zrotation Xrotation Yrotation
                JOINT rIndex2
                {
                  OFFSET -2.54057 -0.884171 1.56538
                  CHANNELS 3 Zrotation Xrotation Yrotation
                  End Site
                  {
                    OFFSET -1.62519 -0.234802 1.16502
                  }
                }
              }
              JOINT rMid1
              {
                OFFSET -8.24714 1.18213 3.41376
                CHANNELS 3 Zrotation Xrotation Yrotation
                JOINT rMid2
                {
                  OFFSET -3.10165 -0.590103 1.0647
                  CHANNELS 3 Zrotation Xrotation Yrotation
                  End Site
                  {
                    OFFSET -2.48547 -0.328903 0.83742
                  }
                }
              }
              JOINT rRing1
              {
                OFFSET -8.82822 0.546677 1.51678
                CHANNELS 3 Zrotation Xrotation Yrotation
                JOINT rRing2
                {
                  OFFSET -2.60934 -0.819778 -0.0198488
                  CHANNELS 3 Zrotation Xrotation Yrotation
                  End Site
                  {
                    OFFSET -2.33842 -0.294052 0.168128
                  }
                }
              }
              JOINT rPinky1
              {
                OFFSET -8.27202 -0.0477905 -0.4584
                CHANNELS 3 Zrotation Xrotation Yrotation
                JOINT rPinky2
                {
                  OFFSET -1.82734 -0.647385 -0.700984
                  CHANNELS 3 Zrotation Xrotation Yrotation
                  End Site
                  {
                    OFFSET -1.69225 -0.51767 -0.607171
                  }
                }
              }
            }
          }
        }
      }
      JOINT lCollar
      {
        OFFSET 2.68224 19.2634 -4.8768
        CHANNELS 3 Zrotation Xrotation Yrotation
        JOINT lShldr
        {
          OFFSET 8.77824 -1.95073 1.46304
          CHANNELS 3 Zrotation Xrotation Yrotation
          JOINT lForeArm
          {
            OFFSET 28.1742 -1.7115 0.48768
            CHANNELS 3 Zrotation Xrotation Yrotation
            JOINT lHand
            {
              OFFSET 22.5879 0.773209 7.07136
              CHANNELS 3 Zrotation Xrotation Yrotation
              JOINT lThumb1
              {
                OFFSET 1.2192 -0.487915 3.41376
                CHANNELS 3 Zrotation Xrotation Yrotation
                JOINT lThumb2
                {
                  OFFSET 3.37035 -0.52449 3.41376
                  CHANNELS 3 Zrotation Xrotation Yrotation
                  End Site
                  {
                    OFFSET 1.78271 -1.18214 1.43049
                  }
                }
              }
              JOINT lIndex1
              {
                OFFSET 7.75947 0.938293 5.60832
                CHANNELS 3 Zrotation Xrotation Yrotation
                JOINT lIndex2
                {
                  OFFSET 2.54057 -0.884171 1.56538
                  CHANNELS 3 Zrotation Xrotation Yrotation
                  End Site
                  {
                    OFFSET 1.62519 -0.234802 1.16502
                  }
                }
              }
              JOINT lMid1
              {
                OFFSET 8.24714 1.18213 3.41376
                CHANNELS 3 Zrotation Xrotation Yrotation
                JOINT lMid2
                {
                  OFFSET 3.10165 -0.590103 1.0647
                  CHANNELS 3 Zrotation Xrotation Yrotation
                  End Site
                  {
                    OFFSET 2.48547 -0.328903 0.83742
                  }
                }
              }
              JOINT lRing1
              {
                OFFSET 8.82822 0.546677 1.51678
                CHANNELS 3 Zrotation Xrotation Yrotation
                JOINT lRing2
                {
                  OFFSET 2.60934 -0.819778 -0.0198488
                  CHANNELS 3 Zrotation Xrotation Yrotation
                  End Site
                  {
                    OFFSET 2.33842 -0.294052 0.168128
                  }
                }
              }
              JOINT lPinky1
              {
                OFFSET 8.27202 -0.0477905 -0.4584
                CHANNELS 3 Zrotation Xrotation Yrotation
                JOINT lPinky2
                {
                  OFFSET 1.82734 -0.647385 -0.700984
                  CHANNELS 3 Zrotation Xrotation Yrotation
                  End Site
                  {
                    OFFSET 1.69225 -0.51767 -0.607171
                  }
                }
              }
            }
          }
        }
      }
    }
  }
  JOINT rButtock
  {
    OFFSET -8.77824 4.35084 1.2192
    CHANNELS 3 Zrotation Xrotation Yrotation
    JOINT rThigh
    {
      OFFSET 0 -1.70687 -2.19456
      CHANNELS 3 Zrotation Xrotation Yrotation
      JOINT rShin
      {
        OFFSET 0 -36.8199 0.73152
        CHANNELS 3 Zrotation Xrotation Yrotation
        JOINT rFoot
        {
          OFFSET 0.73152 -45.1104 -5.12064
          CHANNELS 3 Zrotation Xrotation Yrotation
          End Site
          {
            OFFSET -1.1221 -3.69964 12.103
          }
        }
      }
    }
  }
  JOINT lButtock
  {
    OFFSET 8.77824 4.35084 1.2192
    CHANNELS 3 Zrotation Xrotation Yrotation
    JOINT lThigh
    {
      OFFSET 0 -1.70687 -2.19456
      CHANNELS 3 Zrotation Xrotation Yrotation
      JOINT lShin
      {
        OFFSET 0 -36.8199 0.73152
        CHANNELS 3 Zrotation Xrotation Yrotation
        JOINT lFoot
        {
          OFFSET -0.73152 -45.1104 -5.12064
          CHANNELS 3 Zrotation Xrotation Yrotation
          End Site
          {
            OFFSET 1.1221 -3.69964 12.103
          }
        }
      }
    }
  }
}
MOTION
Frames:	4
Frame Time:	0.03333
-12.527399999999998 57.8137 -4.246160000000001 -20.06260108947754 -41.27250289916992 18.401798248291016 5.380330562591553 10.617500305175781 11.887099266052246 -0.16439999639987946 -11.127501487731934 3.3001396656036377 0.19083601236343384 8.983710289001465 7.3396196365356445 6.227129936218262 -20.271404266357422 15.648499488830566 -0.0 0.0 -0.0 -0.0 0.0 -0.0 -8.583909814506227e-14 3.2759697190208603e-13 -5.705119943090128e-14 42.25920104980469 74.28350830078125 33.0768928527832 -26.29540252685547 -45.6781005859375 94.86709594726562 -34.67830276489258 -78.15259552001953 -42.0640983581543 3.077369692405796e-09 -1.5702399380757015e-08 9.619589846909804e-11 5.25721999267148e-09 -2.7861597473588517e-08 3.435269568807797e-10 3.077369692405796e-09 -1.5702399380757015e-08 9.618629503993503e-11 7.730909824371338 5.474879741668701 0.4173140823841095 3.077359922443179e-09 -1.5702399380757015e-08 9.619269963900834e-11 2.9055399894714355 0.9651829600334167 0.10290199518203735 3.077369692405796e-09 -1.5702399380757015e-08 9.619269963900834e-11 10.27859878540039 0.73180091381073 0.025912316516041756 3.077359922443179e-09 -1.5702399380757015e-08 9.619909729918774e-11 2.221669912338257 -0.733487069606781 -0.208919957280159 -8.591649662765058e-14 3.2759697190208603e-13 -5.739909957926115e-14 -54.38039779663086 16.992698669433594 -43.42909622192383 28.05179786682129 -40.13180160522461 -84.158203125 0.012324299663305283 3.1679303646087646 -0.44568300247192383 -4.6050599444846796e-10 -9.116759430716215e-11 2.7091697774039858e-09 -7.989119921170129e-10 -1.4227599653970913e-10 4.69633976152295e-09 -4.605190118134317e-10 -9.115869864517734e-11 2.7091697774039858e-09 -7.730909824371338 5.474879741668701 -0.4173140823841095 -4.6050599444846796e-10 -9.116830207434035e-11 2.7091697774039858e-09 -2.9055399894714355 0.9651829600334167 -0.10290199518203735 -4.6050896429505883e-10 -9.116809390752323e-11 2.7091697774039858e-09 -10.27859878540039 0.73180091381073 -0.025912316516041756 -4.6049797308711504e-10 -9.116539467779461e-11 2.709160007441369e-09 -2.221669912338257 -0.733487069606781 0.208919957280159 -2.0321699480147914e-16 0.0 -3.8825099822884138e-19 -17.235097885131836 -4.8166303634643555 -16.546798706054688 -0.22821497917175293 45.95848846435547 2.2316598892211914 -2.852949619293213 -10.40160083770752 -19.812599182128906 2.0321699480147914e-16 0.0 3.8825099822884138e-19 74.97029876708984 -48.374202728271484 66.37439727783203 2.469750165939331 71.41558837890625 -2.3680500984191895 -0.06884780526161194 6.952939510345459 15.298601150512695
-12.9514 57.42900000000001 -6.30358 -20.542898178100586 -41.29969787597656 18.4385929107666 5.913699150085449 11.228401184082031 12.041099548339844 -0.5399439930915833 -10.989999771118164 3.3374600410461426 0.08321310579776764 9.158432006835938 7.45059061050415 6.123249053955078 -20.3783016204834 15.86600112915039 -0.0 0.0 -0.0 -0.0 0.0 -0.0 6.460319611082191e-14 4.967160038317486e-13 2.39292987551723e-13 61.186893463134766 72.44119262695312 11.14330005645752 -26.252099990844727 -45.68610763549805 95.01319885253906 -78.66629791259766 -81.77188873291016 -86.54049682617188 2.3083899236553407e-09 -1.6027199123413993e-08 -1.2756898870591726e-09 4.047330026679674e-09 -2.8763102122297823e-08 -2.0125501265511048e-09 2.3083999156625623e-09 -1.6027199123413993e-08 -1.2756999900886967e-09 7.730909824371338 5.474879741668701 0.4173140823841095 2.3083899236553407e-09 -1.6027199123413993e-08 -1.2756999900886967e-09 2.9055399894714355 0.9651829600334167 0.10290199518203735 2.3083999156625623e-09 -1.6027199123413993e-08 -1.2756999900886967e-09 10.27859878540039 0.73180091381073 0.025912316516041756 2.3083899236553407e-09 -1.6027199123413993e-08 -1.2756898870591726e-09 2.221669912338257 -0.733487069606781 -0.208919957280159 6.451479297618287e-14 4.967099865096913e-13 2.390139952276882e-13 -59.11949920654297 15.166399002075195 -40.17300033569336 28.39280128479004 -37.804901123046875 -79.85399627685547 0.051482196897268295 4.085820198059082 -0.5822869539260864 6.950059278088005e-11 5.95430982297529e-10 3.914540080973694e-10 1.142969954792683e-10 1.0505200043198215e-09 6.777000072233363e-10 6.949230080266489e-11 5.95436033812291e-10 3.9146100250242455e-10 -7.730909824371338 5.474879741668701 -0.4173140823841095 6.950189729293399e-11 5.954319814982512e-10 3.914600033017024e-10 -2.9055399894714355 0.9651829600334167 -0.10290199518203735 6.949900377417606e-11 5.954319814982512e-10 3.9145497954251596e-10 -10.27859878540039 0.73180091381073 -0.025912316516041756 6.951109826625057e-11 5.954319814982512e-10 3.914479851374608e-10 -2.221669912338257 -0.733487069606781 0.208919957280159 -2.0321699480147914e-16 0.0 -3.8825099822884138e-19 -16.38469886779785 -5.829820156097412 -17.690500259399414 -0.2498219907283783 47.4265022277832 2.326120138168335 -4.110599994659424 -11.790300369262695 -22.352800369262695 2.0321699480147914e-16 0.0 3.8825099822884138e-19 75.8855972290039 -49.43210220336914 65.54059600830078 2.70809006690979 72.83560180664062 -2.708819627761841 0.07263869792222977 5.87753963470459 11.47659969329834
-13.3463 56.9802 -8.37059 -20.78929901123047 -41.55110168457031 17.979698181152344 6.317059516906738 12.180099487304688 12.162698745727539 -0.9053490161895752 -11.069900512695312 3.366729974746704 -0.1548829823732376 9.482751846313477 7.556949138641357 6.157859802246094 -20.65860366821289 16.124300003051758 -0.0 0.0 -0.0 -0.0 0.0 -0.0 2.2189299280373637e-13 5.534209700751302e-13 4.740019683181773e-13 69.36000061035156 71.01990509033203 0.6761993169784546 -26.542800903320312 -45.13920211791992 93.74669647216797 -81.9729995727539 -82.00001525878906 -89.97270202636719 5.858429852345637e-10 -1.1990599624311926e-08 -2.776050056496615e-09 1.1923300125005198e-09 -2.189429970655965e-08 -4.643580187035923e-09 5.858499796396188e-10 -1.19904992601505e-08 -2.776050056496615e-09 7.730909824371338 5.474879741668701 0.4173140823841095 5.858429852345637e-10 -1.1990599624311926e-08 -2.7760400644893934e-09 2.9055399894714355 0.9651829600334167 0.10290199518203735 5.858479812381745e-10 -1.1990599624311926e-08 -2.776050056496615e-09 10.27859878540039 0.73180091381073 0.025912316516041756 5.858339924280642e-10 -1.1990599624311926e-08 -2.7760400644893934e-09 2.221669912338257 -0.733487069606781 -0.208919957280159 2.218089806878959e-13 5.534119711970986e-13 4.738030172195262e-13 -60.89149475097656 14.28420352935791 -38.6266975402832 28.433198928833008 -35.77389907836914 -76.63129425048828 0.09744099527597427 8.868330955505371 -1.2565099000930786 7.686149494645633e-10 1.1331799942837506e-09 -2.4144299892725485e-09 1.3160199596740085e-09 1.9843398035845894e-09 -4.18873957741539e-09 7.68612951063119e-10 1.133170002276529e-09 -2.414419997265327e-09 -7.730909824371338 5.474879741668701 -0.4173140823841095 7.68618002577881e-10 1.1331799942837506e-09 -2.414419997265327e-09 -2.9055399894714355 0.9651829600334167 -0.10290199518203735 7.686139502638412e-10 1.1331799942837506e-09 -2.4144299892725485e-09 -10.27859878540039 0.73180091381073 -0.025912316516041756 7.686269398732293e-10 1.1331799942837506e-09 -2.4144299892725485e-09 -2.221669912338257 -0.733487069606781 0.208919957280159 -2.0321699480147914e-16 0.0 -3.8825099822884138e-19 -15.822699546813965 -7.225759983062744 -18.485097885131836 -0.2988150417804718 49.896305084228516 2.475559711456299 -5.236459255218506 -12.788900375366211 -24.500896453857422 2.0321699480147914e-16 0.0 3.8825099822884138e-19 76.61759948730469 -50.28570556640625 65.33099365234375 3.1854896545410156 74.90929412841797 -3.2638795375823975 0.20848897099494934 4.409790515899658 8.260969161987305
-13.732499999999998 56.57240000000001 -10.3624 -21.2549991607666 -42.08329772949219 17.52539825439453 6.75200891494751 13.570600509643555 12.124700546264648 -1.1814700365066528 -11.418401718139648 3.365000009536743 -0.2176479995250702 9.7462797164917 7.68393087387085 6.322870254516602 -21.265398025512695 16.457799911499023 -0.0 0.0 -0.0 -0.0 0.0 -0.0 1.631190028970192e-13 3.4648697214319235e-13 4.45370953658375e-13 69.39519500732422 72.39070892333984 -0.7369039058685303 -26.754899978637695 -44.64950180053711 92.73519134521484 -51.81380081176758 -80.77424621582031 -59.48879623413086 -4.792179986168321e-10 -1.7981398592326059e-09 -2.163649925890354e-09 -6.798569485155781e-10 -3.924280012057579e-09 -3.679129889633259e-09 -4.792150010146656e-10 -1.7981299782476867e-09 -2.1636599178975757e-09 7.730909824371338 5.474879741668701 0.4173140823841095 -4.79218942306403e-10 -1.79814996226213e-09 -2.1636399338831325e-09 2.9055399894714355 0.9651829600334167 0.10290199518203735 -4.792129471020701e-10 -1.7981398592326059e-09 -2.1636399338831325e-09 10.27859878540039 0.73180091381073 0.025912316516041756 -4.792229946204429e-10 -1.79814996226213e-09 -2.1636399338831325e-09 2.221669912338257 -0.733487069606781 -0.208919957280159 1.630979964799273e-13 3.4647697037815117e-13 4.4515002036067675e-13 -60.46379470825195 14.26919937133789 -37.61539840698242 28.402198791503906 -35.064693450927734 -75.57649993896484 0.2207990139722824 13.73279857635498 -1.9642101526260376 5.688720050578411e-10 1.3763900019725384e-09 -2.2627399953734084e-09 9.67672941776243e-10 2.4110600183036013e-09 -3.924569558222402e-09 5.688699511452455e-10 1.3763798989430143e-09 -2.262720011358965e-09 -7.730909824371338 5.474879741668701 -0.4173140823841095 5.688750026600076e-10 1.3763798989430143e-09 -2.2627399953734084e-09 -2.9055399894714355 0.9651829600334167 -0.10290199518203735 5.688699511452455e-10 1.3763798989430143e-09 -2.2627399953734084e-09 -10.27859878540039 0.73180091381073 -0.025912316516041756 5.688769455503007e-10 1.37639999397976e-09 -2.2627399953734084e-09 -2.221669912338257 -0.733487069606781 0.208919957280159 -2.0321699480147914e-16 0.0 -3.8825099822884138e-19 -15.489699363708496 -9.020528793334961 -19.08759880065918 -0.3776310086250305 53.131103515625 2.642900228500366 -5.990930080413818 -13.721098899841309 -25.336997985839844 2.0321699480147914e-16 0.0 3.8825099822884138e-19 77.34729766845703 -50.4214973449707 65.86429595947266 4.042659759521484 77.5152816772461 -4.148629665374756 0.31447702646255493 2.9286000728607178 6.121790409088135
